<svg width="1127" height="1594" viewBox="0 0 1127 1594" fill="none" xmlns="http://www.w3.org/2000/svg">
<path style="mix-blend-mode:screen" d="M975.839 1511.78C1058.91 1466.56 941.471 1090.44 713.535 671.679C485.599 252.92 233.48 -49.8965 150.41 -4.68078C67.3411 40.5349 184.778 416.661 412.714 835.419C640.65 1254.18 892.77 1556.99 975.839 1511.78Z" fill="url(#paint0_radial_573_213987)"/>
<path style="mix-blend-mode:screen" d="M155.079 154.234C188.52 215.668 243.897 250.078 278.759 231.098C313.621 212.117 314.772 146.929 281.332 85.503C247.884 24.0694 192.514 -10.3413 157.652 8.6395C122.79 27.6128 121.639 92.8004 155.079 154.234Z" fill="url(#paint1_radial_573_213987)"/>
<defs>
<radialGradient id="paint0_radial_573_213987" cx="0" cy="0" r="1" gradientUnits="userSpaceOnUse" gradientTransform="translate(566.98 752.447) rotate(151.44) scale(172.274 863.697)">
<stop stop-color="#FFD62A"/>
<stop offset="0.06" stop-color="#E6C125"/>
<stop offset="0.21" stop-color="#AA8E1C"/>
<stop offset="0.35" stop-color="#766313"/>
<stop offset="0.5" stop-color="#4B3F0C"/>
<stop offset="0.64" stop-color="#2A2307"/>
<stop offset="0.77" stop-color="#131003"/>
<stop offset="0.89" stop-color="#040400"/>
<stop offset="1"/>
</radialGradient>
<radialGradient id="paint1_radial_573_213987" cx="0" cy="0" r="1" gradientUnits="userSpaceOnUse" gradientTransform="translate(207.87 126.234) rotate(151.44) scale(71.0663 126.34)">
<stop stop-color="white"/>
<stop offset="0.23" stop-color="#FFD62A"/>
<stop offset="0.25" stop-color="#E8C326"/>
<stop offset="0.3" stop-color="#B89A1E"/>
<stop offset="0.36" stop-color="#8C7617"/>
<stop offset="0.42" stop-color="#665610"/>
<stop offset="0.48" stop-color="#463B0B"/>
<stop offset="0.55" stop-color="#2C2507"/>
<stop offset="0.63" stop-color="#181404"/>
<stop offset="0.71" stop-color="#0A0801"/>
<stop offset="0.82" stop-color="#020200"/>
<stop offset="1"/>
</radialGradient>
</defs>
</svg>
